<svg fill="none" height="800" viewBox="0 0 24 24" width="800" xmlns="http://www.w3.org/2000/svg"><g stroke="rgba(0, 0, 200, 0.4)" stroke-linecap="round" stroke-linejoin="round" stroke-width="2"><path d="m18 2 .6178 1.23558c.2655.53098.3982.79647.5756 1.02653.1573.20415.3403.38716.5445.54453.23.17733.4955.31008 1.0265.57557l1.2356.61779-1.2356.61779c-.531.26549-.7965.39824-1.0265.57557-.2042.15737-.3872.34038-.5445.54453-.1774.23006-.3101.49555-.5756 1.02653l-.6178 1.23558-.6178-1.23558c-.2655-.53098-.3982-.79647-.5756-1.02653-.1573-.20415-.3403-.38716-.5445-.54453-.23-.17733-.4955-.31008-1.0265-.57557l-1.2356-.61779 1.2356-.61779c.531-.26549.7965-.39824 1.0265-.57557.2042-.15737.3872-.34038.5445-.54453.1774-.23006.3101-.49555.5756-1.02653z"/><path d="m21 13.3893c-1.311 2.2997-3.7855 3.8502-6.6221 3.8502-4.2068 0-7.61715-3.4103-7.61715-7.61717 0-2.83679 1.55074-5.31139 3.85075-6.62233-4.83171.45812-8.6115 4.52692-8.6115 9.4785 0 5.2586 4.26292 9.5215 9.5215 9.5215 4.9514 0 9.02-3.7794 9.4785-8.6107z"/></g></svg>
