<svg height="800" viewBox="0 0 475.465 475.465" width="800" xmlns="http://www.w3.org/2000/svg"><g fill="rgba(0, 0, 200, 0.4)"><path d="m320.535 320.229c10.701-10.701 19.107-23.173 24.986-37.071 6.095-14.411 9.186-29.694 9.186-45.426s-3.091-31.015-9.186-45.426c-5.879-13.898-14.285-26.371-24.986-37.071-10.7-10.701-23.173-19.107-37.071-24.986-14.411-6.095-29.694-9.186-45.426-9.186-15.73 0-31.014 3.091-45.425 9.186-13.898 5.878-26.371 14.285-37.071 24.986-10.701 10.701-19.107 23.173-24.985 37.071-6.096 14.411-9.186 29.695-9.186 45.426s3.09 31.015 9.186 45.426c5.878 13.898 14.285 26.37 24.985 37.071s23.173 19.107 37.071 24.985c14.412 6.096 29.695 9.187 45.425 9.187 15.732 0 31.015-3.091 45.426-9.187 13.898-5.877 26.371-14.283 37.071-24.985zm-82.497-156.326c40.776 0 73.83 33.054 73.83 73.829 0 40.774-33.054 73.829-73.83 73.829-40.774 0-73.828-33.055-73.828-73.829-.001-40.774 33.054-73.829 73.828-73.829z"/><path d="m238.038 354.901c-15.797 0-31.146-3.104-45.62-9.226-13.958-5.903-26.484-14.346-37.23-25.093-10.747-10.747-19.189-23.273-25.092-37.23-6.122-14.472-9.226-29.821-9.226-45.62s3.104-31.148 9.226-45.621c5.904-13.958 14.346-26.484 25.092-37.23 10.746-10.747 23.272-19.189 37.23-25.093 14.474-6.122 29.823-9.226 45.62-9.226 15.798 0 31.148 3.104 45.621 9.226 13.959 5.904 26.485 14.346 37.23 25.093 10.746 10.746 19.188 23.271 25.094 37.23 6.121 14.474 9.225 29.822 9.225 45.621 0 15.798-3.104 31.146-9.225 45.62-5.904 13.958-14.347 26.483-25.094 37.23-10.746 10.747-23.271 19.189-37.23 25.093-14.473 6.122-29.823 9.226-45.621 9.226zm0-233.338c-15.663 0-30.88 3.077-45.23 9.146-13.839 5.854-26.258 14.224-36.913 24.879s-19.025 23.074-24.878 36.913c-6.069 14.349-9.146 29.566-9.146 45.231s3.077 30.883 9.146 45.231c5.853 13.837 14.223 26.256 24.878 36.912 10.655 10.655 23.074 19.025 36.913 24.878 14.35 6.07 29.567 9.147 45.23 9.147 15.665 0 30.882-3.077 45.232-9.147 13.839-5.853 26.258-14.223 36.912-24.878 10.655-10.655 19.026-23.074 24.879-36.912 6.069-14.351 9.146-29.568 9.146-45.231 0-15.664-3.077-30.881-9.146-45.231-5.854-13.839-14.225-26.258-24.879-36.913s-23.073-19.025-36.912-24.879c-14.35-6.068-29.569-9.146-45.232-9.146zm0 190.499c-40.985 0-74.328-33.344-74.328-74.329s33.343-74.329 74.328-74.329c40.986 0 74.33 33.344 74.33 74.329s-33.345 74.329-74.33 74.329zm0-147.659c-40.433 0-73.328 32.896-73.328 73.329s32.895 73.329 73.328 73.329c40.434 0 73.33-32.896 73.33-73.329s-32.896-73.329-73.33-73.329z"/><path d="m238.705 377.589c-11.798 0-21.381 9.546-21.419 21.354l-.17 54.535c-.038 11.83 9.523 21.449 21.353 21.486h.068c11.799 0 21.382-9.546 21.419-21.354l.171-54.535c.037-11.83-9.523-21.45-21.354-21.486-.023 0-.046 0-.068 0z"/><path d="m238.537 475.464h-.068c-5.857-.019-11.354-2.315-15.481-6.469-4.127-4.152-6.39-9.664-6.372-15.52l.17-54.535c.039-12.049 9.871-21.852 21.919-21.852 5.925.018 11.423 2.314 15.55 6.468 4.128 4.153 6.391 9.665 6.372 15.521l-.171 54.535c-.038 12.049-9.871 21.852-21.919 21.852zm.234-97.375c-11.565 0-20.949 9.355-20.986 20.855l-.17 54.535c-.018 5.588 2.142 10.848 6.081 14.812 3.939 3.963 9.186 6.155 14.774 6.173l.067.5v-.5c11.499 0 20.883-9.355 20.919-20.855l.171-54.535c.018-5.588-2.143-10.848-6.081-14.812-3.94-3.964-9.187-6.157-14.775-6.173z"/><path d="m237.366 97.876h.177c11.83-.096 21.341-9.763 21.247-21.593l-.441-54.535c-.096-11.83-9.75-21.33-21.593-21.246-11.83.096-21.342 9.763-21.246 21.592l.441 54.536c.095 11.771 9.665 21.246 21.415 21.246z"/><path d="m237.366 98.376c-11.987 0-21.818-9.753-21.916-21.743l-.441-54.536c-.047-5.854 2.188-11.377 6.294-15.551s9.593-6.498 15.448-6.545h.16c11.999 0 21.841 9.753 21.938 21.743l.441 54.535c.097 12.086-9.657 21.999-21.743 22.097zm-.455-97.375h-.152c-5.587.045-10.823 2.264-14.742 6.247s-6.053 9.254-6.007 14.842l.441 54.536c.093 11.442 9.476 20.75 20.916 20.75h.173c11.534-.094 20.843-9.554 20.75-21.089l-.441-54.535c-.093-11.442-9.486-20.751-20.938-20.751z"/><path d="m21.919 217.116c-11.798 0-21.381 9.546-21.419 21.353-.037 11.831 9.523 21.45 21.354 21.487l54.535.171h.068c11.798 0 21.382-9.547 21.419-21.354.038-11.83-9.523-21.45-21.353-21.487l-54.536-.171c-.023.001-.045.001-.068.001z"/><path d="m76.457 260.627h-.068l-54.537-.171c-12.087-.038-21.89-9.902-21.852-21.989.039-12.048 9.871-21.851 21.919-21.851l54.605.171c5.855.018 11.353 2.315 15.48 6.468s6.39 9.665 6.372 15.521c-.038 12.048-9.871 21.851-21.919 21.851zm-54.471-43.011c-11.565 0-20.949 9.355-20.986 20.855-.036 11.535 9.319 20.949 20.855 20.985l54.535.171.067.5v-.5c11.499 0 20.883-9.355 20.919-20.855.018-5.587-2.142-10.848-6.081-14.812s-9.186-6.156-14.773-6.173z"/><path d="m474.964 236.755c-.096-11.771-9.666-21.247-21.416-21.247-.059 0-.118 0-.177.001l-54.535.441c-11.83.095-21.342 9.763-21.247 21.592.096 11.771 9.666 21.247 21.416 21.247h.177l54.535-.441c11.83-.095 21.342-9.762 21.247-21.593z"/><path d="m399.184 259.29h-.179c-11.987 0-21.818-9.754-21.916-21.743-.097-12.086 9.657-21.999 21.743-22.096l54.716-.442c11.987 0 21.818 9.754 21.916 21.743.097 12.086-9.657 22-21.743 22.097zm54.364-43.282-.169.001-54.539.441c-11.534.093-20.844 9.553-20.751 21.088.093 11.442 9.476 20.751 20.916 20.751h.175l54.533-.441c11.534-.094 20.844-9.554 20.751-21.089-.093-11.442-9.476-20.751-20.916-20.751z"/><path d="m85.698 412.322c5.459 0 10.92-2.074 15.098-6.227l38.684-38.441c8.391-8.339 8.434-21.901.095-30.292-8.338-8.393-21.901-8.435-30.292-.096l-38.684 38.442c-8.391 8.338-8.434 21.9-.095 30.292 4.187 4.214 9.69 6.322 15.194 6.322z"/><path d="m85.698 412.822c-5.881 0-11.403-2.297-15.548-6.469-4.127-4.153-6.391-9.665-6.372-15.521.019-5.854 2.316-11.352 6.469-15.479l38.684-38.442c4.135-4.109 9.622-6.372 15.451-6.372 5.881 0 11.403 2.298 15.548 6.47 4.127 4.153 6.39 9.664 6.372 15.52-.019 5.855-2.316 11.353-6.469 15.479l-38.684 38.441c-4.135 4.111-9.622 6.373-15.451 6.373zm38.683-81.282c-5.563 0-10.8 2.16-14.746 6.081l-38.684 38.442c-3.964 3.938-6.156 9.186-6.174 14.772-.018 5.589 2.142 10.849 6.081 14.812 3.957 3.981 9.227 6.174 14.839 6.174 5.563 0 10.8-2.16 14.746-6.081l38.684-38.441c3.964-3.939 6.156-9.186 6.174-14.773.017-5.588-2.142-10.849-6.081-14.812-3.956-3.981-9.226-6.174-14.839-6.174z"/><path d="m366.784 138.46 38.25-38.875c8.297-8.433 8.188-21.994-.244-30.292-8.434-8.297-21.994-8.187-30.292.245l-38.251 38.875c-8.297 8.433-8.187 21.994.245 30.292 4.172 4.105 9.598 6.152 15.022 6.152 5.54 0 11.078-2.137 15.27-6.397z"/><path d="m351.515 145.357c-5.788 0-11.247-2.236-15.373-6.295-8.615-8.478-8.728-22.383-.251-30.999l38.251-38.875c4.154-4.221 9.703-6.546 15.626-6.546 5.787 0 11.247 2.236 15.373 6.295 8.614 8.478 8.727 22.383.25 30.999l-38.25 38.875c-4.155 4.221-9.704 6.546-15.626 6.546zm38.253-81.715c-5.652 0-10.948 2.219-14.913 6.247l-38.251 38.875c-8.09 8.222-7.982 21.494.239 29.584 3.938 3.875 9.148 6.008 14.672 6.008 5.652 0 10.948-2.219 14.913-6.247l38.25-38.875c8.09-8.223 7.983-21.494-.238-29.584-3.939-3.874-9.149-6.008-14.672-6.008z"/><path d="m123.004 145.802c5.459 0 10.92-2.074 15.098-6.227 8.391-8.338 8.434-21.901.095-30.292l-38.442-38.683c-8.338-8.392-21.901-8.434-30.292-.095-8.391 8.338-8.434 21.901-.095 30.292l38.441 38.683c4.188 4.213 9.691 6.322 15.195 6.322z"/><path d="m123.004 146.302c-5.881 0-11.403-2.297-15.548-6.469l-38.442-38.683c-4.127-4.153-6.391-9.665-6.372-15.521.019-5.855 2.316-11.352 6.469-15.479 4.135-4.109 9.622-6.372 15.451-6.372 5.881 0 11.403 2.297 15.548 6.469l38.441 38.684c4.127 4.153 6.391 9.665 6.372 15.52s-2.316 11.352-6.469 15.479c-4.134 4.109-9.621 6.372-15.45 6.372zm-38.442-81.524c-5.563 0-10.8 2.16-14.746 6.081-3.964 3.939-6.156 9.186-6.174 14.773s2.142 10.848 6.081 14.812l38.441 38.683c3.957 3.981 9.227 6.174 14.839 6.174 5.563 0 10.8-2.16 14.746-6.081 3.964-3.939 6.156-9.186 6.174-14.773s-2.142-10.848-6.081-14.812l-38.441-38.683c-3.956-3.981-9.226-6.174-14.839-6.174z"/><path d="m375.879 405.034c4.172 4.105 9.598 6.152 15.022 6.152 5.539 0 11.077-2.137 15.269-6.396 8.297-8.434 8.188-21.994-.244-30.292l-38.875-38.25c-8.433-8.298-21.993-8.187-30.291.245-8.297 8.433-8.188 21.994.245 30.291z"/><path d="m390.901 411.687c-5.788 0-11.247-2.236-15.373-6.296l-38.874-38.25c-8.615-8.477-8.728-22.383-.251-30.998 4.154-4.222 9.704-6.546 15.627-6.546 5.786 0 11.246 2.235 15.371 6.295l38.875 38.25c8.614 8.478 8.726 22.384.25 30.999-4.153 4.221-9.702 6.546-15.625 6.546zm-38.871-81.09c-5.652 0-10.949 2.219-14.914 6.247-8.091 8.223-7.983 21.494.239 29.584l38.874 38.25c3.938 3.875 9.148 6.009 14.672 6.009 5.652 0 10.948-2.219 14.912-6.247 8.09-8.223 7.982-21.494-.238-29.585l-38.875-38.25c-3.937-3.875-9.147-6.008-14.67-6.008z"/></g></svg>
